<svg width="80" height="139" viewBox="0 0 80 139" fill="none" xmlns="http://www.w3.org/2000/svg">
<path d="M22.6304 66.5756L22.5804 74.7956C22.5777 75.1754 22.6752 75.5491 22.8631 75.8792C23.051 76.2093 23.3225 76.484 23.6504 76.6756L37.1404 84.5556C37.2609 84.6248 37.361 84.7246 37.4306 84.8449C37.5002 84.9651 37.5368 85.1016 37.5368 85.2406C37.5368 85.3796 37.5002 85.5161 37.4306 85.6363C37.361 85.7566 37.2609 85.8564 37.1404 85.9256L14.8304 98.5856C14.7506 98.6285 14.6621 98.6509 14.5729 98.6509C14.4838 98.6509 14.3969 98.6285 14.3204 98.5856L0.500397 90.5756C0.19373 90.4023 0.04039 90.1389 0.04039 89.7856L0.0303955 12.8756C0.0303955 12.4689 0.210389 12.1723 0.570389 11.9856C7.05039 8.63227 13.4471 4.92893 19.7604 0.875598C21.5304 -0.254402 23.0104 -0.304394 24.9204 0.805606C42.7937 11.1789 60.7304 21.4389 78.7304 31.5856C78.879 31.6679 79.0088 31.7787 79.112 31.9112C79.2152 32.0436 79.2895 32.1948 79.3304 32.3556C79.8804 34.5756 80.1004 38.8356 77.6204 40.2156C69.4604 44.7489 61.3837 49.3356 53.3904 53.9756C53.274 54.0421 53.1773 54.1381 53.11 54.254C53.0427 54.3699 53.0072 54.5016 53.0072 54.6356C53.0072 54.7696 53.0427 54.9013 53.11 55.0172C53.1773 55.1331 53.274 55.2291 53.3904 55.2956L79.0004 70.1356C79.2671 70.2889 79.4037 70.5156 79.4104 70.8156L79.6004 76.7456C79.6063 76.9207 79.5637 77.0943 79.4773 77.2476C79.391 77.401 79.2641 77.5282 79.1104 77.6156L14.9704 114.366C14.637 114.552 14.3037 114.552 13.9704 114.366L1.0304 106.926C0.735881 106.756 0.491786 106.512 0.323105 106.218C0.154423 105.925 0.0672065 105.593 0.0703888 105.256L0.110397 101.636C0.112316 101.53 0.141634 101.427 0.195496 101.336C0.249357 101.245 0.325909 101.169 0.417648 101.117C0.509387 101.065 0.613166 101.037 0.718826 101.037C0.824486 101.036 0.928396 101.064 1.02039 101.116L13.4604 108.216C13.8237 108.42 14.2327 108.527 14.648 108.527C15.0632 108.527 15.4705 108.42 15.8304 108.216L55.2304 85.5756C56.3371 84.9423 56.3337 84.3123 55.2204 83.6856L23.7404 65.9356C23.0071 65.5223 22.6371 65.7356 22.6304 66.5756ZM24.0304 27.2556C23.8806 27.1691 23.7105 27.1238 23.5376 27.1243C23.3646 27.1248 23.1948 27.171 23.0455 27.2584C22.8961 27.3458 22.7726 27.4711 22.6874 27.6216C22.6022 27.7722 22.5584 27.9426 22.5604 28.1156L22.6504 37.2856C22.6529 37.4571 22.7004 37.625 22.7882 37.7724C22.8759 37.9198 23.0008 38.0416 23.1504 38.1256L46.7004 51.5956C46.8494 51.6816 47.0184 51.7269 47.1904 51.7269C47.3624 51.7269 47.5314 51.6816 47.6804 51.5956L55.3704 47.1956C55.5176 47.1091 55.6397 46.9856 55.7246 46.8374C55.8094 46.6892 55.854 46.5214 55.854 46.3506C55.854 46.1798 55.8094 46.012 55.7246 45.8638C55.6397 45.7156 55.5176 45.5921 55.3704 45.5056L24.0304 27.2556Z" fill="#0FA5E9"/>
<path d="M15.0305 120.666C35.2771 109.232 55.4438 97.6622 75.5304 85.9556C76.2905 85.5156 77.7305 85.0956 78.3805 84.2156C78.4593 84.1057 78.5709 84.0236 78.6992 83.9811C78.8276 83.9386 78.9661 83.9378 79.095 83.9789C79.2238 84.02 79.3363 84.1009 79.4163 84.2099C79.4964 84.3188 79.5398 84.4504 79.5405 84.5856L79.5505 89.0956C79.5505 89.2267 79.5173 89.3549 79.4541 89.4672C79.3909 89.5796 79.3 89.6721 79.1905 89.7356L15.2204 126.416C14.9954 126.544 14.7409 126.61 14.4828 126.608C14.2246 126.607 13.972 126.537 13.7505 126.406L0.33045 118.596C0.257619 118.553 0.197121 118.493 0.155004 118.419C0.112888 118.345 0.0906383 118.261 0.0904598 118.176L0.08045 113.186C0.0801282 113.134 0.0935538 113.083 0.119345 113.039C0.145135 112.994 0.182371 112.957 0.227194 112.932C0.272016 112.906 0.322817 112.893 0.374365 112.894C0.425912 112.894 0.476333 112.909 0.520452 112.936L14.0905 120.656C14.4038 120.836 14.7171 120.839 15.0305 120.666Z" fill="#7FC3E0"/>
<path d="M79.6404 96.5556L79.4804 101.376C79.4768 101.449 79.4548 101.521 79.4164 101.584C79.3779 101.647 79.3243 101.699 79.2604 101.736L14.7804 138.756C14.7135 138.794 14.6376 138.815 14.5604 138.815C14.4832 138.815 14.4073 138.794 14.3404 138.756L0.220384 130.666C0.150635 130.625 0.0932507 130.567 0.0544604 130.496C0.0156701 130.426 -0.00302585 130.346 0.000398532 130.266L0.200395 125.516C0.20396 125.44 0.22688 125.367 0.266954 125.303C0.307029 125.239 0.362899 125.186 0.429201 125.15C0.495503 125.114 0.570008 125.095 0.645525 125.096C0.721042 125.097 0.795043 125.118 0.860399 125.156L14.3204 132.986C14.3873 133.024 14.4632 133.045 14.5404 133.045C14.6176 133.045 14.6935 133.024 14.7604 132.986L78.9804 96.1556C79.0487 96.1161 79.1263 96.0957 79.2052 96.0965C79.2841 96.0973 79.3614 96.1193 79.4288 96.1601C79.4963 96.201 79.5516 96.2593 79.5888 96.3289C79.626 96.3985 79.6438 96.4768 79.6404 96.5556Z" fill="#7FC3E0"/>
</svg>
