<svg width="339" height="90" viewBox="0 0 339 90" fill="none" xmlns="http://www.w3.org/2000/svg">
<path d="M14.6724 43.1641L14.64 48.4935C14.6383 48.7397 14.7015 48.982 14.8233 49.196C14.9451 49.41 15.1211 49.5881 15.3337 49.7124L24.0799 54.8214C24.158 54.8662 24.2229 54.9309 24.2681 55.0089C24.3132 55.0869 24.337 55.1754 24.337 55.2655C24.337 55.3556 24.3132 55.4441 24.2681 55.522C24.2229 55.6 24.158 55.6647 24.0799 55.7096L9.6153 63.9177C9.56358 63.9455 9.50617 63.96 9.44838 63.96C9.39058 63.96 9.33427 63.9455 9.28465 63.9177L0.324499 58.7244C0.125673 58.612 0.0262553 58.4413 0.0262553 58.2122L0.0197754 8.34785C0.0197754 8.08419 0.136473 7.89185 0.369878 7.77083C4.57117 5.5967 8.71843 3.19566 12.8117 0.567691C13.9592 -0.164941 14.9188 -0.197353 16.1571 0.522312C27.7452 7.24783 39.3744 13.8999 51.0447 20.4784C51.141 20.5318 51.2252 20.6036 51.2921 20.6895C51.359 20.7754 51.4072 20.8734 51.4337 20.9777C51.7903 22.417 51.9329 25.1789 50.325 26.0737C45.0345 29.0128 39.798 31.9866 34.6156 34.9949C34.5401 35.038 34.4774 35.1003 34.4337 35.1754C34.3901 35.2506 34.3671 35.3359 34.3671 35.4228C34.3671 35.5097 34.3901 35.5951 34.4337 35.6702C34.4774 35.7454 34.5401 35.8076 34.6156 35.8507L51.2197 45.4722C51.3926 45.5716 51.4812 45.7186 51.4855 45.9131L51.6087 49.7578C51.6125 49.8713 51.5849 49.9838 51.529 50.0833C51.473 50.1827 51.3907 50.2652 51.291 50.3218L9.70607 74.1486C9.48995 74.2696 9.27384 74.2696 9.05772 74.1486L0.668122 69.3249C0.477175 69.2147 0.318917 69.0564 0.209553 68.8662C0.100188 68.6759 0.0436417 68.4606 0.0457049 68.2421L0.0716443 65.8951C0.072888 65.8266 0.0918968 65.7596 0.126818 65.7007C0.161738 65.6418 0.211371 65.5929 0.27085 65.5589C0.330328 65.5249 0.397613 65.507 0.466117 65.5068C0.534622 65.5067 0.601991 65.5243 0.661632 65.558L8.72707 70.1613C8.96259 70.2936 9.22782 70.3632 9.49704 70.3632C9.76626 70.3632 10.0303 70.2936 10.2636 70.1613L35.8085 55.4827C36.526 55.0721 36.5239 54.6636 35.802 54.2573L15.3921 42.7491C14.9166 42.4812 14.6767 42.6195 14.6724 43.1641ZM15.5801 17.6711C15.483 17.615 15.3727 17.5856 15.2606 17.5859C15.1484 17.5863 15.0383 17.6163 14.9415 17.6729C14.8447 17.7295 14.7646 17.8108 14.7094 17.9084C14.6541 18.006 14.6257 18.1165 14.627 18.2287L14.6854 24.174C14.687 24.2852 14.7178 24.394 14.7747 24.4896C14.8316 24.5852 14.9126 24.6642 15.0096 24.7186L30.2781 33.4518C30.3747 33.5076 30.4843 33.537 30.5958 33.537C30.7073 33.537 30.8169 33.5076 30.9135 33.4518L35.8993 30.5991C35.9947 30.543 36.0739 30.463 36.1289 30.3669C36.1839 30.2708 36.2128 30.162 36.2128 30.0513C36.2128 29.9405 36.1839 29.8317 36.1289 29.7356C36.0739 29.6395 35.9947 29.5595 35.8993 29.5034L15.5801 17.6711Z" fill="#0FA5E9"/>
<path d="M9.7448 78.2332C22.8717 70.8204 35.9467 63.319 48.9698 55.729C49.4625 55.4438 50.3961 55.1715 50.8176 54.6009C50.8687 54.5297 50.941 54.4765 51.0243 54.4489C51.1075 54.4213 51.1973 54.4209 51.2808 54.4475C51.3643 54.4741 51.4373 54.5265 51.4892 54.5972C51.5411 54.6679 51.5692 54.7531 51.5697 54.8408L51.5761 57.7649C51.5762 57.8499 51.5546 57.933 51.5136 58.0058C51.4727 58.0786 51.4137 58.1386 51.3427 58.1798L9.86798 81.9612C9.72206 82.0441 9.55707 82.0872 9.3897 82.0861C9.22234 82.085 9.05855 82.0396 8.91492 81.9547L0.214092 76.8911C0.166873 76.8638 0.127649 76.8243 0.100343 76.7765C0.0730367 76.7287 0.0586111 76.6743 0.0584954 76.6188L0.0520056 73.3835C0.051797 73.3501 0.0605014 73.3172 0.0772228 73.2883C0.0939443 73.2594 0.118086 73.2354 0.147146 73.2189C0.176207 73.2024 0.209144 73.1939 0.242564 73.1944C0.275985 73.1948 0.308675 73.2042 0.33728 73.2215L9.13535 78.2267C9.3385 78.3434 9.54165 78.3455 9.7448 78.2332Z" fill="#7FC3E0"/>
<path d="M51.6346 62.6015L51.5309 65.7266C51.5285 65.7743 51.5143 65.8207 51.4894 65.8615C51.4644 65.9023 51.4296 65.9361 51.3882 65.96L9.58282 89.9618C9.53946 89.9868 9.49026 90 9.44019 90C9.39011 90 9.34092 89.9868 9.29755 89.9618L0.142886 84.7167C0.0976637 84.6906 0.0604588 84.6527 0.0353092 84.6069C0.0101597 84.5612 -0.0019618 84.5095 0.000258387 84.4573L0.129926 81.3777C0.132237 81.3288 0.147097 81.2813 0.173079 81.2398C0.199061 81.1983 0.235285 81.1641 0.278271 81.1407C0.321258 81.1172 0.369563 81.1053 0.418524 81.1059C0.467485 81.1065 0.515463 81.1197 0.557837 81.1443L9.28458 86.2208C9.32795 86.2459 9.37714 86.259 9.42722 86.259C9.47729 86.259 9.52649 86.2459 9.56985 86.2208L51.2067 62.3422C51.251 62.3166 51.3013 62.3033 51.3525 62.3038C51.4036 62.3044 51.4537 62.3186 51.4974 62.3451C51.5412 62.3717 51.577 62.4094 51.6011 62.4546C51.6253 62.4997 51.6368 62.5504 51.6346 62.6015Z" fill="#7FC3E0"/>
<path d="M136.68 58.9761L136.66 36.2284C136.653 34.7584 136 34.0309 134.7 34.0459L134.05 34.0571C133.832 34.0586 133.616 34.1087 133.416 34.2044C133.215 34.3002 133.032 34.4398 132.879 34.6153C132.726 34.7908 132.605 34.9988 132.523 35.2273C132.44 35.4558 132.399 35.7004 132.4 35.9472L132.62 59.2798C132.62 59.7073 132.433 59.9211 132.06 59.9211H127.75C127.417 59.9211 127.25 59.7336 127.25 59.3586C127.19 52.586 127.15 45.6447 127.13 38.5347C127.12 35.9134 127.02 32.1784 129.25 30.8509C131.52 29.5121 135.97 30.1084 138.5 30.2884C141.76 30.5359 142.04 33.8096 142.1 36.7009C142.247 44.336 142.25 51.8623 142.11 59.2798C142.103 59.7673 141.88 60.0073 141.44 59.9998L137.51 59.9211C136.957 59.9136 136.68 59.5986 136.68 58.9761Z" fill="#0FA5E9"/>
<path d="M162.53 55.1379C162.53 56.4274 162.072 57.6641 161.256 58.5759C160.44 59.4877 159.334 60 158.18 60H151.54C150.386 60 149.28 59.4877 148.464 58.5759C147.648 57.6641 147.19 56.4274 147.19 55.1379V34.8622C147.19 33.5726 147.648 32.3359 148.464 31.4241C149.28 30.5123 150.386 30 151.54 30H158.18C159.334 30 160.44 30.5123 161.256 31.4241C162.072 32.3359 162.53 33.5726 162.53 34.8622V55.1379ZM157.245 35.4723C157.245 35.2639 157.208 35.0576 157.136 34.8652C157.065 34.6727 156.96 34.498 156.828 34.3508C156.695 34.2037 156.539 34.0871 156.366 34.0077C156.194 33.9283 156.009 33.8876 155.823 33.888L153.963 33.8915C153.776 33.8919 153.592 33.9333 153.42 34.0134C153.247 34.0935 153.091 34.2107 152.959 34.3584C152.828 34.506 152.723 34.6812 152.652 34.8739C152.581 35.0666 152.545 35.2731 152.545 35.4815L152.575 54.3489C152.575 54.5573 152.612 54.7636 152.684 54.956C152.755 55.1485 152.86 55.3232 152.992 55.4704C153.124 55.6175 153.281 55.7341 153.454 55.8135C153.626 55.8929 153.811 55.9336 153.997 55.9332L155.857 55.9297C156.044 55.9293 156.228 55.8879 156.4 55.8078C156.573 55.7277 156.729 55.6105 156.861 55.4628C156.992 55.3152 157.096 55.14 157.168 54.9473C157.239 54.7546 157.275 54.5481 157.275 54.3397L157.245 35.4723Z" fill="#0FA5E9"/>
<path d="M235.39 54.9754L240.03 54.8733C240.207 54.8701 240.378 54.9454 240.507 55.083C240.636 55.2207 240.712 55.4099 240.72 55.6105L240.86 59.0699C240.864 59.173 240.85 59.2761 240.818 59.3729C240.786 59.4696 240.738 59.5582 240.675 59.6333C240.613 59.7084 240.538 59.7685 240.454 59.8101C240.371 59.8516 240.281 59.8738 240.19 59.8752L229.92 59.9999C229.83 60.0014 229.74 59.9826 229.657 59.9445C229.573 59.9064 229.497 59.8498 229.433 59.7781C229.368 59.7063 229.317 59.6208 229.283 59.5264C229.248 59.4321 229.23 59.3309 229.23 59.2287L229.27 30.7713C229.27 30.67 229.288 30.5697 229.322 30.4761C229.356 30.3825 229.406 30.2975 229.469 30.2259C229.532 30.1543 229.607 30.0975 229.69 30.0587C229.772 30.0199 229.861 30 229.95 30L233.99 30.0113C234.079 30.0113 234.168 30.0313 234.25 30.07C234.333 30.1088 234.408 30.1656 234.471 30.2372C234.534 30.3089 234.584 30.3939 234.618 30.4874C234.652 30.581 234.67 30.6813 234.67 30.7826L234.7 54.2041C234.7 54.3063 234.718 54.4076 234.753 54.5019C234.787 54.5962 234.838 54.6818 234.903 54.7535C234.967 54.8253 235.043 54.8819 235.127 54.9199C235.21 54.958 235.3 54.9769 235.39 54.9754Z" fill="#0FA5E9"/>
<path d="M253.79 53.8867L253.69 48.7499C253.685 48.4679 253.58 48.1992 253.397 48.0008C253.214 47.8024 252.967 47.6899 252.71 47.6871C246.18 47.5875 243.91 47.4325 244.08 39.2622C244.29 29.5421 247.25 29.4092 255.24 30.4056C258.24 30.782 259.09 34.1143 258.57 36.9152C258.503 37.2916 258.3 37.5389 257.96 37.657C253.51 39.1737 254.46 35.6199 252.03 34.6014C251.41 34.3431 250.837 34.476 250.31 35C248.99 36.3063 249.35 38.764 249.73 40.5907C249.808 40.9601 249.994 41.2909 250.26 41.5328C250.525 41.7747 250.855 41.9143 251.2 41.9303C255.21 42.0963 258.44 41.5096 258.8 47.3217C259.01 50.7094 259.42 56.433 257.52 58.7911C257.273 59.1011 256.967 59.3004 256.6 59.3889C253.067 60.2525 249.533 60.2008 246 59.2339C245.62 59.1232 245.34 58.876 245.16 58.4922C244.22 56.4109 243.937 54.193 244.31 51.8386C244.377 51.4401 244.593 51.2371 244.96 51.2297L248.68 51.1412C249.167 51.1338 249.443 51.3958 249.51 51.9272L249.81 54.3185C249.85 54.6543 250.004 54.9609 250.241 55.1765C250.479 55.3922 250.782 55.501 251.09 55.4809L252.55 55.3813C253.397 55.3149 253.81 54.8167 253.79 53.8867Z" fill="#0FA5E9"/>
<path d="M266.5 35.6986C265.78 35.4702 265.03 35.3864 264.25 35.4473C263.237 35.5158 262.717 34.9715 262.69 33.8143L262.65 31.8158C262.63 30.5977 263.153 29.9925 264.22 30.0001L276.02 30.0458C276.54 30.0534 276.797 30.3541 276.79 30.9479L276.76 34.3739C276.753 34.9677 276.493 35.257 275.98 35.2418L273.65 35.1961C272.89 35.1809 272.51 35.6034 272.51 36.4637L272.49 59.1549C272.49 59.373 272.415 59.5822 272.282 59.7364C272.149 59.8906 271.968 59.9772 271.78 59.9772L267.73 60C267.534 60 267.345 59.9122 267.207 59.7558C267.068 59.5995 266.99 59.3875 266.99 59.1664L267.05 36.5208C267.05 36.0868 266.867 35.8128 266.5 35.6986Z" fill="#0FA5E9"/>
<path d="M286.69 50.7207L286.8 58.6791C286.807 59.5295 286.43 59.9585 285.67 59.966L282.38 59.9999C281.533 60.0074 281.117 59.5333 281.13 58.5775C281.283 46.7923 281.34 39.1837 281.3 35.752C281.26 31.3269 283.31 30.04 287.02 30.0738C290.99 30.0964 296.24 28.8886 296.57 35.4472C296.763 39.3832 296.753 47.2438 296.54 59.0291C296.527 59.6236 296.257 59.9247 295.73 59.9322L292.05 59.9773C291.423 59.9849 291.11 59.6349 291.11 58.9275L291.07 51.0593C291.07 50.5024 290.823 50.2052 290.33 50.1676L287.46 49.9079C286.94 49.8628 286.683 50.1337 286.69 50.7207ZM291.075 35.6086C291.073 35.3966 291.034 35.1872 290.96 34.9923C290.886 34.7975 290.779 34.621 290.644 34.4729C290.51 34.3249 290.351 34.2082 290.176 34.1294C290.002 34.0507 289.816 34.0115 289.628 34.0141L288.008 34.0365C287.629 34.0417 287.267 34.2168 287.002 34.5232C286.737 34.8296 286.591 35.2422 286.596 35.6703L286.685 43.8878C286.687 44.0998 286.726 44.3092 286.8 44.504C286.874 44.6989 286.981 44.8754 287.116 45.0234C287.25 45.1715 287.409 45.2882 287.583 45.3669C287.758 45.4456 287.944 45.4848 288.132 45.4822L289.752 45.4599C290.131 45.4546 290.493 45.2796 290.758 44.9732C291.023 44.6668 291.169 44.2541 291.164 43.8261L291.075 35.6086Z" fill="#0FA5E9"/>
<path d="M306.68 54.4433C306.681 54.6087 306.713 54.7722 306.773 54.9235C306.834 55.0748 306.921 55.2108 307.031 55.323C307.141 55.4352 307.27 55.5213 307.411 55.5759C307.552 55.6305 307.701 55.6525 307.85 55.6405L310.14 55.4757C310.433 55.4559 310.707 55.3096 310.901 55.0689C311.096 54.8281 311.196 54.5124 311.18 54.1907L311.08 51.7415C311.033 50.7457 311.463 50.2588 312.37 50.2808L315.14 50.3357C315.973 50.3503 316.41 50.8153 316.45 51.7305C316.537 54.037 316.17 56.2592 315.35 58.3972C315.23 58.7121 315.02 58.9134 314.72 59.0013C310.96 60.1105 301.34 61.6482 301.28 55.1682C301.22 48.4027 301.23 41.6298 301.31 34.8497C301.36 31.3241 303.23 30.2917 306.24 30.138C311.72 29.8634 317.58 29.1825 316.21 37.7053C316.137 38.1812 315.877 38.4155 315.43 38.4081L312.19 38.3642C312.018 38.362 311.851 38.2931 311.719 38.1691C311.586 38.0451 311.494 37.8736 311.46 37.6833L310.97 34.8607C310.91 34.5385 310.733 34.3298 310.44 34.2346C309.393 33.8978 308.36 33.9125 307.34 34.2786C306.88 34.447 306.65 34.7984 306.65 35.3329L306.68 54.4433Z" fill="#0FA5E9"/>
<path d="M80.83 44.2631C83.27 47.3535 82.8 53.6824 82.05 57.0237C81.8579 57.8693 81.4252 58.6186 80.8192 59.1549C80.2132 59.6912 79.4681 59.9844 78.7 59.9886L67.85 60C67.4167 60 67.2033 59.7529 67.21 59.2587L67.26 31.2175C67.2593 30.9815 67.3368 30.7536 67.4774 30.5785C67.618 30.4034 67.8115 30.2937 68.02 30.271C71.0733 29.9745 74.1467 29.9213 77.24 30.1114C83.64 30.4991 83 39.1087 80.75 43.3052C80.57 43.6473 80.5967 43.9666 80.83 44.2631ZM76.8702 36.031C76.8725 35.5381 76.7029 35.0643 76.3988 34.7139C76.0948 34.3635 75.6811 34.1652 75.2488 34.1626L74.2888 34.1568C74.0747 34.1555 73.8626 34.2023 73.6644 34.2945C73.4662 34.3868 73.2859 34.5226 73.1337 34.6943C72.9816 34.866 72.8606 35.0702 72.7776 35.2952C72.6947 35.5203 72.6514 35.7617 72.6503 36.0058L72.6298 40.4759C72.6275 40.9689 72.7971 41.4427 73.1012 41.7931C73.4052 42.1435 73.8189 42.3418 74.2512 42.3444L75.2112 42.3502C75.4252 42.3515 75.6374 42.3047 75.8356 42.2124C76.0338 42.1202 76.2141 41.9843 76.3663 41.8126C76.5184 41.6409 76.6394 41.4367 76.7224 41.2117C76.8053 40.9867 76.8486 40.7452 76.8497 40.5011L76.8702 36.031ZM72.62 47.8666L72.56 54.914C72.5587 55.0393 72.5792 55.1636 72.6203 55.2797C72.6614 55.3959 72.7223 55.5016 72.7995 55.5907C72.8767 55.6798 72.9687 55.7505 73.07 55.7988C73.1714 55.8471 73.2801 55.8719 73.39 55.8719L75.43 55.8833C75.8928 55.8877 76.3378 55.7377 76.6677 55.4663C76.9975 55.1949 77.1853 54.8241 77.19 54.4351L77.23 48.4368C77.2311 48.0475 77.0486 47.6729 76.7224 47.395C76.3963 47.1171 75.9531 46.9587 75.49 46.9544L73.45 46.9315C73.2316 46.9315 73.022 47.0297 72.8666 47.2047C72.7112 47.3798 72.6226 47.6176 72.62 47.8666Z" fill="#0FA5E9"/>
<path d="M92.6 49.1193L92.68 59.3134C92.6867 59.6719 92.5334 59.855 92.22 59.8626L87.7 59.9198C87.5691 59.9198 87.4434 59.8611 87.35 59.7563C87.2565 59.6515 87.2026 59.5089 87.2 59.3592L87.16 31.1451C87.16 30.3595 87.5034 29.9781 88.19 30.001C91.0567 30.0925 93.9067 30.0963 96.74 30.0124C103.85 29.8179 102.79 39.1311 101.04 43.9936C100.913 44.3368 100.927 44.6763 101.08 45.0119C101.887 46.8043 102.15 51.5791 101.87 59.3363C101.865 59.5164 101.797 59.687 101.681 59.8111C101.565 59.9353 101.41 60.0031 101.25 59.9999L96.98 59.977C96.9017 59.9755 96.8244 59.9562 96.7526 59.9202C96.6809 59.8842 96.6161 59.8322 96.5621 59.7672C96.5081 59.7022 96.466 59.6256 96.4382 59.5418C96.4103 59.458 96.3974 59.3687 96.4 59.2791C96.6067 52.0787 96.18 48.2154 95.12 47.6891C93.4267 46.8425 92.5867 47.3192 92.6 49.1193ZM96.7724 35.9815C96.7669 35.7232 96.717 35.4686 96.6255 35.2323C96.534 34.996 96.4027 34.7827 96.2391 34.6045C96.0755 34.4263 95.8829 34.2866 95.6721 34.1936C95.4614 34.1006 95.2367 34.0559 95.0109 34.0622L94.0712 34.0886C93.8454 34.0949 93.6229 34.152 93.4164 34.2567C93.2099 34.3614 93.0234 34.5116 92.8677 34.6988C92.7119 34.8859 92.5899 35.1063 92.5085 35.3474C92.4272 35.5885 92.3882 35.8456 92.3937 36.104L92.5076 41.434C92.5131 41.6923 92.5631 41.9469 92.6546 42.1832C92.7461 42.4194 92.8774 42.6328 93.041 42.811C93.2045 42.9892 93.3972 43.1288 93.6079 43.2219C93.8186 43.3149 94.0433 43.3595 94.2691 43.3532L95.2088 43.3269C95.4346 43.3206 95.6572 43.2635 95.8637 43.1588C96.0702 43.0541 96.2566 42.9039 96.4124 42.7167C96.5682 42.5296 96.6902 42.3092 96.7715 42.0681C96.8528 41.827 96.8919 41.5699 96.8863 41.3116L96.7724 35.9815Z" fill="#0FA5E9"/>
<path d="M116.62 54.2285L116.77 31.1581C116.77 30.6019 117.017 30.3162 117.51 30.3012L121.2 30.1546C121.313 30.1501 121.425 30.1712 121.531 30.2168C121.636 30.2623 121.732 30.3314 121.814 30.4198C121.895 30.5082 121.959 30.6141 122.003 30.7313C122.047 30.8485 122.07 30.9745 122.07 31.1018C122.163 42.0318 122.17 50.0414 122.09 55.1306C122.07 56.6415 121.57 57.9758 120.59 59.1335C120.363 59.4041 120.087 59.562 119.76 59.6071C116.653 60.1032 113.557 60.1295 110.47 59.686C108.47 59.3928 107.36 57.8255 107.29 55.6943C107.103 50.4624 107.07 42.5618 107.19 31.9926C107.197 30.8575 107.707 30.2523 108.72 30.1772L110.95 30.008C112.003 29.9253 112.53 30.4816 112.53 31.6769V54.0255C112.53 55.1531 113.027 55.7169 114.02 55.7169H115.3C116.18 55.7169 116.62 55.2208 116.62 54.2285Z" fill="#0FA5E9"/>
<path d="M182.66 49.2196L182.64 59.1435C182.64 59.3676 182.562 59.5826 182.423 59.7411C182.284 59.8995 182.096 59.9886 181.9 59.9886L177.99 60C177.794 60 177.605 59.9109 177.467 59.7525C177.328 59.594 177.25 59.379 177.25 59.1549L177.24 30.8679C177.24 30.6438 177.318 30.4289 177.457 30.2704C177.596 30.1119 177.784 30.0229 177.98 30.0229L188.17 30C188.268 30 188.365 30.0222 188.456 30.0654C188.546 30.1086 188.628 30.1719 188.697 30.2516C188.766 30.3312 188.82 30.4257 188.857 30.5296C188.893 30.6334 188.911 30.7446 188.91 30.8565L188.88 34.6593C188.879 34.7723 188.858 34.8838 188.818 34.9873C188.778 35.0908 188.721 35.1841 188.649 35.2619C188.577 35.3396 188.493 35.4001 188.4 35.4398C188.307 35.4795 188.209 35.4975 188.11 35.493L183.41 35.2988C183.31 35.2942 183.211 35.3127 183.118 35.3531C183.024 35.3935 182.939 35.455 182.867 35.5339C182.795 35.6128 182.738 35.7076 182.699 35.8124C182.66 35.9172 182.64 36.03 182.64 36.1439L182.65 42.4362C182.65 42.6604 182.728 42.8753 182.867 43.0338C183.006 43.1923 183.194 43.2813 183.39 43.2813L187.97 43.2927C188.07 43.2926 188.168 43.3156 188.26 43.3602C188.352 43.4048 188.435 43.4701 188.504 43.5522C188.573 43.6344 188.627 43.7316 188.663 43.8381C188.698 43.9447 188.714 44.0582 188.71 44.1721L188.59 47.6094C188.582 47.8296 188.499 48.0375 188.359 48.189C188.219 48.3404 188.033 48.4234 187.84 48.4202L183.4 48.386C183.205 48.386 183.019 48.4734 182.88 48.6295C182.742 48.7855 182.663 48.9975 182.66 49.2196Z" fill="#0FA5E9"/>
<path d="M202.48 54.3795L202.6 31.5209C202.607 30.5442 203.047 30.0485 203.92 30.0335L206.82 30.0112C207.673 29.9963 208.107 30.466 208.12 31.4203C208.21 41.351 209.24 53.2053 207.24 58.316C207.08 58.7186 206.813 58.9758 206.44 59.0877C202.673 60.2656 198.91 60.3029 195.15 59.1995C194.87 59.1175 194.647 58.9423 194.48 58.6739C193.667 57.3393 193.26 56.0868 193.26 54.9163C193.26 46.8345 193.25 38.8907 193.23 31.0848C193.23 30.3765 193.547 30.0224 194.18 30.0224L197.69 30C197.946 30 198.191 30.1115 198.372 30.3104C198.554 30.5094 198.657 30.7796 198.66 31.0624L198.72 54.3571C198.72 55.1325 199.067 55.5053 199.76 55.4755L201.61 55.3972C201.844 55.3856 202.066 55.2733 202.228 55.0837C202.39 54.8941 202.48 54.6418 202.48 54.3795Z" fill="#0FA5E9"/>
<path d="M219.35 55.0741L223.99 55.0285C224.156 55.0275 224.317 55.0969 224.441 55.2233C224.564 55.3498 224.643 55.5242 224.66 55.7126L224.97 59.1562C224.98 59.263 224.97 59.371 224.941 59.4731C224.911 59.5752 224.863 59.6692 224.8 59.7488C224.737 59.8284 224.66 59.8919 224.574 59.9352C224.487 59.9785 224.394 60.0006 224.3 60H213.87C213.692 60 213.522 59.9195 213.396 59.7762C213.271 59.6329 213.2 59.4386 213.2 59.236L213.26 30.764C213.26 30.6627 213.278 30.5625 213.312 30.469C213.346 30.3756 213.396 30.2909 213.46 30.2198C213.523 30.1487 213.598 30.0926 213.68 30.0549C213.763 30.0172 213.851 29.9986 213.94 30.0001L217.99 30.0799C218.166 30.0829 218.334 30.1647 218.457 30.3076C218.581 30.4506 218.65 30.6432 218.65 30.8439L218.67 54.3101C218.67 54.4114 218.688 54.5117 218.722 54.6051C218.756 54.6986 218.806 54.7833 218.87 54.8544C218.933 54.9255 219.008 54.9816 219.09 55.0193C219.173 55.057 219.261 55.0756 219.35 55.0741Z" fill="#0FA5E9"/>
<path d="M327.66 42.6486C329.67 41.2596 330.93 34.4061 331.89 31.5827C332.25 30.5201 332.933 29.9926 333.94 30.0002L335.57 30.0116C336.73 30.0192 337.117 30.6453 336.73 31.89L333.47 42.307C333.14 43.3519 333.144 44.4962 333.48 45.5402L338 59.4978C338.011 59.5332 338.015 59.571 338.01 59.6082C338.006 59.6454 337.994 59.6809 337.976 59.712C337.957 59.743 337.933 59.7686 337.904 59.7868C337.875 59.805 337.843 59.8152 337.81 59.8166L332.9 59.9988C332.66 60.014 332.497 59.8887 332.41 59.6231L329.04 48.8873C328.974 48.6741 328.866 48.4804 328.724 48.3206C328.582 48.1609 328.41 48.0393 328.22 47.9652C327.16 47.5477 326.637 48.0259 326.65 49.3996C326.697 52.9061 326.727 56.1659 326.74 59.1791C326.74 59.7104 326.507 59.9722 326.04 59.9646L322 59.9305C321.507 59.9229 321.26 59.6383 321.26 59.0766L321.15 31.8331C321.143 30.6719 321.653 30.0799 322.68 30.0571L325.3 30.0002C325.479 29.9971 325.657 30.0347 325.823 30.1106C325.989 30.1865 326.14 30.2992 326.268 30.4422C326.395 30.5852 326.496 30.7557 326.565 30.9437C326.634 31.1316 326.67 31.3333 326.67 31.5371L326.69 42.0224C326.69 42.1516 326.72 42.2785 326.777 42.3902C326.834 42.5019 326.916 42.5944 327.014 42.6581C327.113 42.7218 327.225 42.7545 327.338 42.7528C327.452 42.7511 327.563 42.7152 327.66 42.6486Z" fill="#0FA5E9"/>
</svg>
